<svg width="1011" height="721" viewBox="0 0 1011 721" fill="none" xmlns="http://www.w3.org/2000/svg">
<g id="Top">
<path id="Crust" d="M0.0896819 221.408C-0.0097787 205.405 12.6512 192.157 28.6384 191.44C397.397 174.903 610.516 191.971 973.679 192.753C991.425 192.791 1005.31 208.1 1004.21 225.812C995.329 367.921 1017.36 513.549 1008.48 687.135C1007.7 702.476 995.112 714.557 979.76 715.057C614.734 726.951 396.667 714.865 32.2928 714.17C14.8734 714.137 1.08802 699.33 2.10517 681.94C11.745 517.135 1.18329 397.367 0.0896819 221.408Z" fill="#FFDCA3"/>
<path id="Icing" d="M30.4102 244.971C31.2143 229.053 44.4262 216.571 60.3645 216.541C392.842 215.9 609.326 204.397 946.552 215.563C962.689 216.098 975.494 229.357 975.771 245.501C978.16 384.747 996.162 510.392 978.478 666.286C976.895 680.244 965.438 691.051 951.435 692.169C596.849 720.497 420.222 684.2 59.8119 689.668C44.1233 689.906 30.706 678.119 29.4858 662.476C20.4841 547.078 22.1758 407.975 30.4102 244.971Z" fill="white"/>
<path id="Drizzle" d="M88.9625 271.475C116.805 471.652 157.398 536.99 270.484 661.735C273.402 664.953 278.73 664.085 280.429 660.086C338.469 523.459 331.974 438.263 354.69 279.024C355.496 273.372 363.009 271.97 365.845 276.925C447.433 419.415 517.286 506.394 549.92 652.269C551.148 657.76 558.619 658.852 561.266 653.886C631.81 521.517 666.418 437.094 702.436 282.591C703.53 277.894 709.514 276.353 712.774 279.906C858.084 438.247 888.194 511.942 930.313 645.176" stroke="#845100" stroke-width="42" stroke-linecap="round"/>
<g id="Sprinkles">
<path d="M88.3568 291.768C85.2634 286.614 86.9337 279.928 92.0875 276.835L121.692 259.066C126.845 255.973 133.531 257.643 136.624 262.797C139.718 267.951 138.047 274.637 132.894 277.73L103.29 295.499C98.1358 298.592 91.4501 296.922 88.3568 291.768Z" fill="#523912"/>
<path d="M95.9433 394.421C97.1426 388.531 102.889 384.729 108.779 385.928L142.613 392.816C148.503 394.016 152.305 399.762 151.106 405.652C149.907 411.542 144.16 415.345 138.27 414.146L104.437 407.258C98.5468 406.058 94.7441 400.311 95.9433 394.421Z" fill="#523912"/>
<path d="M398.886 525.203C397.97 519.262 402.044 513.704 407.984 512.788L442.109 507.529C448.049 506.613 453.608 510.686 454.523 516.627C455.439 522.568 451.365 528.126 445.425 529.042L411.3 534.301C405.36 535.217 399.801 531.143 398.886 525.203Z" fill="#523912"/>
<path d="M400.729 639.003C396.026 642.747 389.179 641.97 385.435 637.268L363.929 610.256C360.185 605.554 360.962 598.706 365.664 594.963C370.367 591.219 377.214 591.996 380.958 596.698L402.464 623.71C406.208 628.412 405.431 635.259 400.729 639.003Z" fill="#523912"/>
<path d="M250.931 618.542C245.799 615.412 244.177 608.715 247.307 603.583L265.288 574.107C268.418 568.976 275.115 567.354 280.247 570.484C285.378 573.614 287.001 580.311 283.87 585.443L265.89 614.919C262.76 620.05 256.062 621.673 250.931 618.542Z" fill="#523912"/>
<path d="M358.581 378.407C352.891 376.47 349.849 370.286 351.787 364.596L362.917 331.912C364.854 326.222 371.038 323.18 376.728 325.118C382.418 327.056 385.46 333.239 383.522 338.929L372.392 371.613C370.454 377.303 364.271 380.345 358.581 378.407Z" fill="#523912"/>
<path d="M230.421 479.348C227.328 474.194 228.998 467.508 234.152 464.415L263.756 446.646C268.91 443.553 275.595 445.223 278.689 450.377C281.782 455.531 280.112 462.216 274.958 465.31L245.354 483.078C240.2 486.172 233.514 484.501 230.421 479.348Z" fill="#523912"/>
<path d="M541.291 247.314C546.513 244.337 553.159 246.156 556.137 251.377L573.24 281.371C576.218 286.592 574.399 293.239 569.177 296.217C563.956 299.194 557.309 297.375 554.331 292.153L537.228 262.16C534.25 256.938 536.07 250.292 541.291 247.314Z" fill="#523912"/>
<path d="M462.131 392.62C462.174 386.61 467.081 381.772 473.092 381.814L507.618 382.061C513.629 382.104 518.467 387.011 518.424 393.022C518.381 399.032 513.474 403.87 507.463 403.827L472.937 403.581C466.926 403.538 462.088 398.631 462.131 392.62Z" fill="#523912"/>
<path d="M624.658 587.869C623.217 582.034 626.778 576.135 632.614 574.693L666.133 566.41C671.968 564.969 677.867 568.53 679.309 574.365C680.751 580.201 677.19 586.1 671.354 587.542L637.835 595.825C632 597.266 626.1 593.705 624.658 587.869Z" fill="#523912"/>
<path d="M564.764 584.951C569.162 589.047 569.407 595.934 565.31 600.333L541.777 625.598C537.68 629.996 530.793 630.241 526.395 626.144C521.996 622.047 521.752 615.16 525.849 610.762L549.382 585.497C553.479 581.098 560.365 580.854 564.764 584.951Z" fill="#523912"/>
<path d="M573.857 422.798C570.764 417.644 572.434 410.958 577.588 407.865L607.192 390.096C612.346 387.003 619.032 388.673 622.125 393.827C625.218 398.981 623.548 405.667 618.394 408.76L588.79 426.529C583.636 429.622 576.951 427.952 573.857 422.798Z" fill="#523912"/>
<path d="M737.74 507.164C734.784 501.93 736.632 495.291 741.866 492.336L771.933 475.361C777.167 472.405 783.806 474.253 786.761 479.487C789.716 484.721 787.868 491.36 782.634 494.315L752.568 511.29C747.334 514.246 740.695 512.398 737.74 507.164Z" fill="#523912"/>
<path d="M254.769 318.096C255.313 312.109 260.607 307.698 266.593 308.242L300.979 311.366C306.965 311.91 311.377 317.204 310.833 323.19C310.289 329.176 304.995 333.588 299.009 333.044L264.623 329.919C258.637 329.375 254.225 324.082 254.769 318.096Z" fill="#523912"/>
<path d="M719.263 300.407C714.324 296.981 713.098 290.2 716.524 285.261L736.203 256.891C739.629 251.952 746.41 250.726 751.349 254.152C756.288 257.577 757.514 264.359 754.088 269.297L734.409 297.668C730.983 302.607 724.202 303.833 719.263 300.407Z" fill="#523912"/>
<path d="M727.146 343.61C729.771 338.203 736.282 335.947 741.69 338.571L772.752 353.647C778.159 356.272 780.416 362.783 777.791 368.191C775.166 373.598 768.655 375.854 763.248 373.23L732.186 358.154C726.778 355.529 724.522 349.018 727.146 343.61Z" fill="#523912"/>
<path d="M774.291 601.343C775.188 595.4 780.734 591.31 786.678 592.207L820.818 597.364C826.761 598.262 830.852 603.807 829.954 609.751C829.056 615.694 823.51 619.785 817.567 618.887L783.427 613.73C777.483 612.833 773.393 607.287 774.291 601.343Z" fill="#523912"/>
<path d="M844.193 367.627C841.1 362.474 842.77 355.788 847.924 352.695L877.528 334.926C882.682 331.833 889.367 333.503 892.461 338.657C895.554 343.81 893.884 350.496 888.73 353.589L859.126 371.358C853.972 374.451 847.286 372.781 844.193 367.627Z" fill="#523912"/>
<path d="M858.682 515.159C859.874 509.267 865.617 505.458 871.508 506.65L905.349 513.5C911.24 514.692 915.05 520.435 913.857 526.326C912.665 532.218 906.922 536.027 901.031 534.834L867.19 527.985C861.298 526.793 857.489 521.05 858.682 515.159Z" fill="#523912"/>
<path d="M147.796 529.52C153.723 528.518 159.34 532.51 160.342 538.436L166.099 572.48C167.101 578.407 163.109 584.024 157.182 585.026C151.255 586.028 145.638 582.036 144.636 576.11L138.88 542.066C137.878 536.139 141.87 530.522 147.796 529.52Z" fill="#523912"/>
</g>
</g>
<g id="Inside">
<path id="Crust_2" d="M27.9503 91.7938C20.3548 91.6018 12.7189 88.7089 8.19761 82.6027C-6.52008 62.7255 1.6653 47.7344 8.88994 30.6522C15.4279 15.1935 29.7946 1.24606 46.5789 1.31047C331.48 2.40388 621.867 0.0831375 973.767 1.11074C986.923 1.14915 998.613 9.76601 1002.32 22.3896C1014.21 62.9158 1012.35 64.8679 1005.9 73.5016C998.466 83.4524 987.654 91.4557 975.235 91.4293C631.688 90.6983 408.75 101.422 27.9503 91.7938Z" fill="#FFDCA3"/>
<g id="Icing_2">
<path id="main" d="M47.7947 68.8408C43.4233 68.786 38.9664 67.8824 35.2254 65.6204C27.6256 61.0251 25.4306 57.0011 25.9784 53.1677C28.3725 36.4139 55.0814 26.93 72.0054 26.9613C342.594 27.4614 618.532 26.3805 953.232 26.8714C963.561 26.8865 973.361 32.1516 978.502 41.1103C986.027 54.2247 985.202 56.4046 980.885 59.3785C973.33 64.5839 964.439 68.7457 955.264 68.7347C625.405 68.3374 413.389 73.4262 47.7947 68.8408Z" fill="#845100"/>
<mask id="mask0" mask-type="alpha" maskUnits="userSpaceOnUse" x="148" y="11" width="717" height="76">
<g id="mask">
<g id="Vector">
<path d="M303.016 86.3073C309.16 56.9767 311.008 40.5315 303.016 11.2008H152.803C146.022 40.0229 146.79 56.5251 152.803 86.3073H303.016Z" fill="#C4C4C4"/>
<path d="M584.018 86.3073C591.843 46.4117 592.477 29.1112 584.018 11.2008H433.805C428.12 52.6227 429.079 67.1345 433.805 86.3073H584.018Z" fill="#C4C4C4"/>
<path d="M857.249 86.3073C865.684 53.2933 868.107 35.7902 857.249 11.2008H707.037C700.1 52.6203 701.207 67.1363 707.037 86.3073H857.249Z" fill="#C4C4C4"/>
</g>
</g>
</mask>
<g mask="url(#mask0)">
<path id="secondary" d="M47.7947 68.8408C43.4233 68.786 38.9664 67.8824 35.2254 65.6204C27.6256 61.0251 25.4306 57.0011 25.9784 53.1677C28.3725 36.4139 55.0814 26.93 72.0054 26.9613C342.594 27.4614 618.532 26.3805 953.232 26.8714C963.561 26.8865 973.361 32.1516 978.502 41.1103C986.027 54.2247 985.202 56.4046 980.885 59.3785C973.33 64.5839 964.439 68.7457 955.264 68.7347C625.405 68.3374 413.389 73.4262 47.7947 68.8408Z" fill="white"/>
</g>
</g>
</g>
</svg>
